<?xml version="1.0" encoding="UTF-8"?>
<svg id="Calque_1" xmlns="http://www.w3.org/2000/svg" version="1.1" viewBox="0 0 512 512">
  <!-- Generator: Adobe Illustrator 29.0.0, SVG Export Plug-In . SVG Version: 2.1.0 Build 186)  -->
  <path d="M73.1,94.8c2.8-23.6,17.4-36.4,40.7-35.7,52.9,1.5,98.5,20.3,136.7,56.1,1.8,1.7,3.2,3.7,4.8,5.8,7.1-6.2,13.2-12,19.8-17.3,36-28.6,77.3-43.4,123.5-44.6,23.4-.6,37.8,12.1,40.7,35.7h15.7c33.6,0,57.1,23.1,57.1,56,0,82.1,0,164.1,0,246.1,0,32.9-23.6,56-57.2,56-132.5,0-265.1,0-397.6,0-33.5,0-57.1-23.1-57.1-56,0-82.1,0-164.1,0-246.1,0-32.8,23.6-55.9,57.2-55.9h15.7ZM110.4,94.8v250.5c47.6.8,89.8,15.6,127.5,45.3v-209.5c0-30.1.1-30.3-24-49.6-30-23.9-64.5-35.8-103.5-36.7h0ZM402.1,345.3V95c-2.5,0-4.6-.1-6.7,0-46.4,3-85.4,21.1-116.6,55.1-3.2,3.5-4.3,6.9-4.3,11.5.1,74,0,148.1,0,222.1v7c37.8-29.6,79.9-44.4,127.5-45.2ZM212.7,417.1c-2.2-1.8-3.3-2.8-4.4-3.7-28.2-20.4-59.9-31.2-95-32-25.3-.6-39.8-14.9-39.8-39.7v-211.1c-6.1,0-11.6,0-17.1,0-11.8.1-19.4,7.4-19.4,18.8,0,82.9,0,165.9,0,248.8,0,11.3,7.7,18.7,19.5,18.8,25.7,0,51.4,0,77.1,0h79.1ZM439.1,130.7v7.2c0,68.6,0,137.2,0,205.7,0,22.2-15.3,37.3-37.7,37.7-22.6.3-44.1,4.8-64.8,13.7-12.8,5.5-24.9,12.4-36.7,22.1h153.6c15.6,0,22.2-6.5,22.2-21.8v-242.7c0-1.7,0-3.4,0-5-.6-9.2-7.9-16.5-17.4-16.9-6.1-.3-12.2,0-19.1,0h0Z"/>
</svg>