<?xml version="1.0" encoding="UTF-8"?>
<svg id="Calque_1" xmlns="http://www.w3.org/2000/svg" version="1.1" viewBox="0 0 512 512">
  <!-- Generator: Adobe Illustrator 29.2.1, SVG Export Plug-In . SVG Version: 2.1.0 Build 116)  -->
  <path d="M256.4-.3C115.1-.3.4,114.3.4,255.7s114.6,256,256,256,256-114.6,256-256S397.8-.3,256.4-.3ZM398,209.4c-53.9,51.6-107.8,103.1-161.8,154.6-6.6,6.3-13.7,9.5-20.8,9.5s-14-3.1-20.5-9.3c-28.1-26.8-55.4-52.9-81.1-77.6-6.1-5.8-9.5-13.2-9.6-20.8-.1-7.1,2.7-13.8,7.8-19,10.8-11,27.4-10.8,39.3.5,14,13.3,28,26.6,41.9,39.9l18.8,17.9c1.1,1.1,2.2,2.1,3.4,3.2l6.4-6c6.8-6.4,13.5-12.8,20.1-19.1l54-51.5c21.6-20.6,43.2-41.2,64.8-61.8,12.7-12.1,29.3-12.7,40.4-1.4,5.2,5.3,7.8,11.7,7.7,18.7-.1,7.9-3.9,15.7-10.7,22.2h0Z"/>
</svg>