<?xml version="1.0" encoding="UTF-8"?>
<svg id="Calque_1" xmlns="http://www.w3.org/2000/svg" version="1.1" viewBox="0 0 512 512">
  <!-- Generator: Adobe Illustrator 29.3.0, SVG Export Plug-In . SVG Version: 2.1.0 Build 146)  -->
  <path d="M180.5,436.3h0c-24.3,0-48-10.1-64.8-27.7L11.1,299c-14.7-15.4-14.1-39.7,1.2-54.3,15.3-14.6,39.6-14.1,54.3,1.2l104.7,109.6c3.3,3.4,7.2,4,9.3,4h0c2.1,0,6-.5,9.3-4L446.3,87c14.7-15.4,39-15.9,54.3-1.2,15.3,14.7,15.9,39,1.3,54.3L245.3,408.6c-16.8,17.6-40.5,27.7-64.8,27.7Z"/>
</svg>