<?xml version="1.0" encoding="UTF-8"?>
<svg id="Calque_1" data-name="Calque 1" xmlns="http://www.w3.org/2000/svg" version="1.1" viewBox="0 0 512 512">
  <defs>
    <style>
      .cls-1 {
        fill: #000;
        stroke-width: 0px;
      }
    </style>
  </defs>
  <g id="Group_3" data-name="Group 3">
    <path id="Fill_1" data-name="Fill 1" class="cls-1" d="M510.8,311.8v138.3c2,31.5-21.9,58.7-53.5,60.8-2.3.1-4.7.2-7,0-29.6,0-59.2,0-88.8,0-21,1.3-39-14.7-40.3-35.7-.1-1.7,0-3.4,0-5v-99.5c1.4-10.6-6-20.3-16.6-21.8-1.6-.2-3.2-.2-4.8,0h-90c-10.5-1.2-20.1,6.3-21.3,16.9-.2,1.5-.2,3,0,4.6v99.5c1.8,21-13.9,39.5-34.9,41.2-2.1.2-4.1.2-6.2,0H58.7c-31.5,1.4-58.2-22.9-59.7-54.5,0-1.8,0-3.6,0-5.4,0-93,0-185.9,0-278.9-.7-15.6,7.5-30.3,21.2-37.8C91.3,91.5,162.3,48.6,233.3,5.7c13-8.8,30-8.8,43-.2,71.3,43.1,142.7,86.2,214,129.3,13.4,7.4,21.3,21.8,20.5,37.1-.1,46.7,0,93.4,0,140.1"/>
  </g>
</svg>