<?xml version="1.0" encoding="utf-8"?>
<!-- Generator: Adobe Illustrator 28.1.0, SVG Export Plug-In . SVG Version: 6.00 Build 0)  -->
<svg version="1.1" id="Calque_1" xmlns="http://www.w3.org/2000/svg" xmlns:xlink="http://www.w3.org/1999/xlink" x="0px" y="0px"
	 viewBox="0 0 512 512" style="enable-background:new 0 0 512 512;" xml:space="preserve">
<style type="text/css">
	.st0{fill:#010202;}
</style>
<path id="twitter" class="st0" d="M496.5,54.5c-2.8,1.3-5.4,2.8-8.1,3.9c-15.1,5.8-30.1,11.4-45,16.9c-6.4,2.5-13.7,0.8-18.4-4.2
	c-21.7-20.1-51.1-29.7-80.5-26.2C286.6,50,243.7,101,248.6,159c0.2,1.6,0.4,3.5,0.6,5.2c0.7,8.3-0.9,10.7-9.6,10
	c-77.2-6.6-148.9-42.6-200.3-100.6c-2.4-2.6-4.9-5.2-8.3-8.9c-8.2,12.5-13,26.9-14.1,41.9c-3.7,37.5,12.4,74.2,42.6,96.8l-1.9,2.9
	l-42.3-11.4c1,48.5,33.9,90.6,80.7,103.2l-0.9,2.6l-41.3,1.9c15.1,41.4,53.3,69.8,97.2,72.5C107.7,407.9,53.9,424-0.3,420.5
	c2.3,2.6,5.1,4.7,8.1,6.3c53.8,30.8,115.8,44.4,177.6,38.8c75.8-4.7,146.5-39.4,196.6-96.5c50.9-56.1,79-129.1,79-204.8
	c-0.4-8.9,3.5-17.4,10.5-22.9c12.8-11.4,24.2-24.7,36-37.1c1.6-2.3,3-4.8,4.1-7.4c-10.5,3.3-18.8,6.3-27.3,8.5
	c-8.5,2.2-16.8,3.5-25.1,5.4C477,96.1,489.9,76.6,496.5,54.5L496.5,54.5z"/>
</svg>
