<?xml version="1.0" encoding="utf-8"?>
<!-- Generator: Adobe Illustrator 28.1.0, SVG Export Plug-In . SVG Version: 6.00 Build 0)  -->
<svg version="1.1" id="Calque_1" xmlns="http://www.w3.org/2000/svg" xmlns:xlink="http://www.w3.org/1999/xlink" x="0px" y="0px"
	 viewBox="0 0 512 512" style="enable-background:new 0 0 512 512;" xml:space="preserve">
<style type="text/css">
	.st0{fill:#010202;}
</style>
<g id="linkedin" transform="translate(-1.799 -2.2)">
	<path id="Tracé_947" class="st0" d="M513.5,513.5L513.5,513.5V326c0-91.9-19.7-162.5-127-162.5c-41-1.5-79.6,19.6-100.3,55.1h-1.5
		V172H183v341.4h105.9V344.3c0-44.5,8.6-87.6,63.6-87.6c54.3,0,55.1,50.9,55.1,90.5v166.2L513.5,513.5z"/>
	<path id="Tracé_948" class="st0" d="M10.5,172h106.1v341.4H10.5V172z"/>
	<path id="Tracé_949" class="st0" d="M63.5,2C29.4,1.9,1.6,29.4,1.5,63.5s27.3,61.9,61.4,62.1c34.1,0.2,61.9-27.3,62.1-61.4
		c0,0,0,0,0,0v-0.6C124.9,29.5,97.5,2.1,63.5,2z"/>
</g>
</svg>
