<?xml version="1.0" encoding="UTF-8"?>
<svg id="Calque_1" data-name="Calque 1" xmlns="http://www.w3.org/2000/svg" version="1.1" viewBox="0 0 512 512">
  <defs>
    <style>
      .cls-1 {
        fill: #000;
        stroke-width: 0px;
      }
    </style>
  </defs>
  <path class="cls-1" d="M253.6-1C112.2-1-2.4,113.6-2.4,255S112.2,511,253.6,511s256-114.6,256-256S395-1,253.6-1ZM287.6,366.9c-8,7.9-17.7,11.8-28.9,11.8s-20.9-3.9-28.9-11.8c-8-7.9-12-17.6-12-29.1s4-20.9,12-28.9c8-8,17.7-12,28.9-12s20.9,4,28.9,12c8,8,12,17.7,12,28.9s-4,21.3-12,29.1ZM347.9,200.5c-4.3,9.3-9.5,17.1-15.6,23.4-6,6.3-12.1,12.1-18.1,17.5-6,5.4-11.2,10.7-15.6,16-4.3,5.3-6.5,10.4-6.5,15.4h-67c0-10.8,3.1-20.9,9.3-30.5,6.2-9.6,12.9-17.3,20.3-23.2,7.3-5.9,14.1-12.5,20.3-19.7,6.2-7.2,9.3-14.1,9.3-20.7,0-12.6-7.7-18.9-23.2-18.9s-28.6,10.4-37.8,31.1l-59.9-34.3c8.7-21.3,22-37.4,40-48.4,18-11,38.1-16.5,60.5-16.5s46.6,7,64.2,21.1c17.6,14,26.4,33.2,26.4,57.3s-2.2,21.2-6.5,30.5Z"/>
</svg>