<?xml version="1.0" encoding="UTF-8"?>
<svg id="Calque_1" data-name="Calque 1" xmlns="http://www.w3.org/2000/svg" version="1.1" viewBox="0 0 512 512">
  <defs>
    <style>
      .cls-1 {
        fill: #1e1e1c;
        stroke-width: 0px;
      }
    </style>
  </defs>
  <path class="cls-1" d="M475.1,219.1h-182.1V36.9c0-20.4-16.5-36.9-36.9-36.9h0c-20.4,0-36.9,16.5-36.9,36.9v182.1H37C16.6,219,0,235.5,0,255.9H0c0,20.4,16.5,36.9,36.9,36.9h182.1v182.1c0,20.4,16.5,36.9,36.9,36.9h0c20.4,0,36.9-16.5,36.9-36.9v-182h182.1c20.4,0,36.9-16.5,36.9-36.9h0c.2-20.4-16.4-36.9-36.8-36.9Z"/>
</svg>