<?xml version="1.0" encoding="UTF-8"?>
<svg id="Calque_1" data-name="Calque 1" xmlns="http://www.w3.org/2000/svg" version="1.1" viewBox="0 0 512 512">
  <defs>
    <style>
      .cls-1 {
        fill: #000;
        stroke-width: 0px;
      }
    </style>
  </defs>
  <g id="tel-2">
    <path id="Fill_1" data-name="Fill 1" class="cls-1" d="M395.7,511.6c-19-.7-37.7-4.3-55.6-10.7-38.7-13.8-75.2-33.2-108.2-57.7-55.9-39.9-105.7-87.7-147.8-142-31.6-38.8-56.5-82.7-73.6-129.8C2.8,151-.8,129.2-.3,107.3c.3-19.2,8.3-37.5,22.3-50.7,14.3-13.4,28.2-27.5,41.9-41.6,19.9-20.2,52.4-20.5,72.6-.6.2.2.4.4.6.6,22.9,22.5,45.5,45.2,68.1,67.9,18.6,17.2,20.9,45.7,5.3,65.7-5.1,6.5-11.9,11.3-19.7,14-13.9,4.3-25.3,14.6-31.1,28-3.9,8.9-4.6,18.9-2,28.3,6.4,22.4,17.5,43.1,32.7,60.7,21.2,27,48.1,49,78.7,64.6,11.4,6.8,24.7,9.9,37.9,8.8,17.2-1.4,32.2-12.4,38.8-28.4,3.6-11,10.6-20.5,20-27.3,19.3-12.5,44.7-9.7,60.7,6.7,23.9,23.3,47.5,46.9,70.9,70.7,19.1,19.9,18.8,51.3-.6,70.8-15.4,15.7-31.1,31.2-46.7,46.7-14.7,13.6-34.3,20.6-54.3,19.4"/>
  </g>
</svg>