<?xml version="1.0" encoding="UTF-8"?>
<svg id="Calque_1" data-name="Calque 1" xmlns="http://www.w3.org/2000/svg" version="1.1" viewBox="0 0 512 512">
  <defs>
    <style>
      .cls-1 {
        fill: #010101;
        stroke-width: 0px;
      }
    </style>
  </defs>
  <g id="Pin">
    <path id="Fill_1" data-name="Fill 1" class="cls-1" d="M255.8,511.6c-6.1-.6-11.6-3.8-15.2-8.8-50.6-56.8-94.4-119.2-130.7-186-16.9-30-29.2-62.3-36.5-95.9-13.7-63.5,7.9-129.4,56.4-172.5,24.6-23.8,55.8-39.6,89.6-45.4,12.8-2.3,25.8-3.5,38.8-3.5,54.9,0,106.8,24.8,141.3,67.5,27.6,32.3,42.7,73.4,42.6,115.8,0,23-4.1,45.9-11.8,67.6-14.1,40.5-33.1,79.1-56.6,115-30.6,48.4-65,94.3-102.8,137.3-3.5,5-9,8.2-15.1,8.8ZM256.2,91.4h-.9c-51.6,0-93.3,41.8-93.3,93.4,0,51.5,41.8,93.3,93.3,93.3h.5c25.1,0,49.1-10.2,66.7-28.1,17.4-17.5,27-41.2,26.8-65.8-.5-51.2-41.9-92.5-93.1-92.8Z"/>
  </g>
</svg>