<?xml version="1.0" encoding="UTF-8"?>
<svg id="Calque_1" xmlns="http://www.w3.org/2000/svg" version="1.1" viewBox="0 0 512 512">
  <!-- Generator: Adobe Illustrator 29.0.0, SVG Export Plug-In . SVG Version: 2.1.0 Build 186)  -->
  <path d="M293.4-.4C172.5-.4,74,98.1,74,219s18,99.3,48.1,136.9L8,470c-9.5,9.5-9.5,25,0,34.5,4.8,4.8,11,7.1,17.2,7.1s12.5-2.4,17.2-7.1l114.1-114.1c37.5,30.1,85.1,48.1,136.9,48.1,121,0,219.4-98.5,219.4-219.4S414.4-.4,293.4-.4ZM293.4,389.7c-94.1,0-170.7-76.6-170.7-170.7S199.4,48.4,293.4,48.4s170.7,76.6,170.7,170.7-76.6,170.7-170.7,170.7Z"/>
</svg>