<?xml version="1.0" encoding="utf-8"?>
<!-- Generator: Adobe Illustrator 28.0.0, SVG Export Plug-In . SVG Version: 6.00 Build 0)  -->
<svg version="1.1" id="Calque_1" xmlns="http://www.w3.org/2000/svg" xmlns:xlink="http://www.w3.org/1999/xlink" x="0px" y="0px"
	 viewBox="0 0 800 800" style="enable-background:new 0 0 800 800;" xml:space="preserve">
<g>
	<path d="M197.57,98.51c8.12,0,15.34,4.06,19.3,10.86c6.22,10.66,2.88,24.4-7.44,30.71c-42.23,24.43-75.6,43.77-98.23,75.96
		c-22.12,31.47-32.39,72.39-35.43,141.23l-1.38,31.32h31.36h132.87c28.66,0,55.19,10.75,74.7,30.26
		c19.51,19.51,30.26,46.04,30.26,74.7v73.65h-0.7v30c0,28.66-10.75,55.19-30.26,74.7c-19.51,19.51-46.04,30.26-74.7,30.26H134.96
		C77.08,702.16,30,655.08,30,597.2V411.46c0-101.1,10.46-162.67,34.97-205.9c23.22-40.94,60.56-68.23,121.35-104.23
		C189.61,99.43,193.29,98.51,197.57,98.51 M197.57,68.51c-9.04,0-18.09,2.09-26.43,6.96C46.61,149.2,0,197.2,0,411.46V597.2
		c0,74.43,60.52,134.96,134.96,134.96h102.96c75.83,0,134.96-59.13,134.96-134.96h0.7V493.55c0-75.83-59.13-134.96-134.96-134.96
		H105.74c5.57-125.91,34.78-144,118.96-192.7c24.35-14.61,32.7-46.61,18.09-71.65C233.04,77.55,215.65,68.51,197.57,68.51
		L197.57,68.51z"/>
	<path d="M624,98.51c8.12,0,15.34,4.06,19.3,10.86c6.24,10.7,2.85,24.49-7.55,30.78c-42.32,25.18-75.75,45.08-98.17,77.19
		c-22.09,31.63-32.34,72.57-35.37,141.33l-1.38,31.32h31.36h132.87c28.66,0,55.19,10.75,74.7,30.26
		c19.51,19.51,30.26,46.04,30.26,74.7V597.2c0,28.66-10.75,55.19-30.26,74.7c-19.51,19.51-46.04,30.26-74.7,30.26H561.39
		c-57.87,0-104.96-47.08-104.96-104.96V411.46c0-101.1,10.46-162.67,34.97-205.9c23.22-40.94,60.56-68.23,121.35-104.23
		C616.04,99.43,619.72,98.51,624,98.51 M624,68.51c-9.04,0-18.09,2.09-26.43,6.96c-124.52,73.74-171.13,121.74-171.13,336V597.2
		c0,74.43,60.52,134.96,134.96,134.96h103.65c75.83,0,134.96-59.13,134.96-134.96V494.94c0-75.83-59.13-134.96-134.96-134.96H532.17
		c5.57-125.91,34.78-144,118.96-194.09c24.35-14.61,32.7-46.61,18.09-71.65C659.48,77.55,642.09,68.51,624,68.51L624,68.51z"/>
</g>
</svg>
