<?xml version="1.0" encoding="UTF-8"?>
<svg id="Calque_1" xmlns="http://www.w3.org/2000/svg" version="1.1" viewBox="0 0 512 512">
  <!-- Generator: Adobe Illustrator 29.3.0, SVG Export Plug-In . SVG Version: 2.1.0 Build 146)  -->
  <path d="M.4,299.4c2.8-9.6,7.8-17.2,18.2-19.6,15-3.5,28.6,7.3,28.7,23,.1,31.4,0,62.8,0,94.3,0,40.2,27.9,68,68.2,68h282.2c40.3,0,68-27.8,68-68.2,0-31.4,0-62.8,0-94.3,0-10.5,6.4-19.2,16-22.4,9.3-3,19.7-.3,25.3,7.8,2.7,4,5,9.3,5.1,14,.2,36.3,1.1,72.7-.7,108.9-2.6,51.7-48.1,96.2-99.9,100-6.1.4-12.3.7-18.5.7-93,0-186,.1-278.9,0-52.7,0-96.5-33.5-109.6-83.6-1.9-7.1-2.7-14.5-4-21.8v-106.8Z"/>
  <path d="M259.7-.3c7.8,2.1,13.4,7.3,19,12.9,43.7,43.9,87.5,87.7,131.4,131.4,5.2,5.2,8.9,11,8.8,18.6-.2,9.6-4.7,16.8-13.3,20.9-8.6,4.1-17,2.9-24.5-3-1.7-1.3-3.2-3-4.7-4.5-30.4-30.4-60.9-60.9-91.3-91.4-1.4-1.4-2.2-3.4-3.3-5.1l-2.2,1.3v288.5c0,13.6-6.2,22.4-17.8,25.3-13.6,3.5-27.3-6.4-28.4-20.4-.2-2.5-.1-5.1-.1-7.6V79.8c-2.3,2.1-3.7,3.3-5,4.6-31.1,31.1-62.2,62.1-93.2,93.3-6.3,6.3-13.6,9.5-22.6,7.6-17.2-3.7-24.3-24.1-13-37.6,1.3-1.5,2.7-2.9,4.2-4.3C147.2,99.7,190.8,56.2,234.3,12.6c5.5-5.6,11.1-10.8,19-12.9h6.5,0Z"/>
</svg>