<?xml version="1.0" encoding="UTF-8"?>
<svg id="Calque_1" data-name="Calque 1" xmlns="http://www.w3.org/2000/svg" version="1.1" viewBox="0 0 512 512">
  <defs>
    <style>
      .cls-1 {
        fill: #000;
        stroke-width: 0px;
      }
    </style>
  </defs>
  <path class="cls-1" d="M255.8,512.2c-40.3,0-80.7,0-121,0-20.8,0-40.4-4.1-57.6-16.3-19.4-13.8-31-32.9-33.1-56.4-3.8-42.7,1.2-84.6,17.3-124.5,9.5-23.6,23.8-43.9,47.2-56.3,14.6-7.7,30.2-11.4,46.6-11.1,5,.1,10.3,2.6,14.9,5.1,7.7,4.2,14.9,9.5,22.4,14.1,42.7,26.3,85.4,26.2,128.1-.1,5.9-3.7,12-7.2,17.6-11.4,10.4-7.8,21.8-8.7,34.1-6.9,33,4.9,56.3,23.1,72.1,51.9,14.2,25.9,20.5,54,23.4,83,1.5,15.2,2.1,30.6,2,45.9-.6,44-32,77.7-76,82-6.1.6-12.3.9-18.4.9-39.8,0-79.7,0-119.5,0h0Z"/>
  <path class="cls-1" d="M376.6,123.3c.5,67.5-55.2,123.5-123.1,123.7-67.9.2-123.7-55.8-123.8-123C129.7,55.9,184.1.8,252.6.2c68.3-.5,123.5,54.4,124,123.1Z"/>
</svg>