<svg id="Group_15" data-name="Group 15" xmlns="http://www.w3.org/2000/svg" width="75" height="74.904" viewBox="0 0 75 74.904">
  <g id="check_bloc_10ans" data-name="check bloc 10ans">
    <path id="Fill_1" data-name="Fill 1" d="M37.608,7.2a30.212,30.212,0,0,0-6.747,59.669,29.956,29.956,0,0,0,22.624-3.831c2.491-1.507,5.339-.3,5.758,2.474a3.479,3.479,0,0,1-1.762,3.657A36.7,36.7,0,0,1,45,74.162,37.466,37.466,0,1,1,73.172,25.927,37.156,37.156,0,0,1,74.809,41.3a3.719,3.719,0,0,1-3.4,3.6,3.575,3.575,0,0,1-3.786-2.681,6.655,6.655,0,0,1-.073-2.1A30.085,30.085,0,0,0,43.547,7.957c-1.951-.391-3.958-.512-5.939-.757" fill="#2e60ff"/>
    <path id="Fill_3" data-name="Fill 3" d="M12.765,18.929c.357-.449.52-.7.726-.9Q21.866,9.64,30.253,1.265a3.663,3.663,0,0,1,5.606,4.716,7.992,7.992,0,0,1-.552.585q-9.776,9.779-19.554,19.556c-1.944,1.944-3.978,1.938-5.927-.01-2.9-2.9-5.809-5.779-8.688-8.694a3.645,3.645,0,0,1,1.632-6.2,3.6,3.6,0,0,1,3.606,1.07q2.895,2.9,5.791,5.8a7.348,7.348,0,0,1,.6.841" transform="translate(19.161 23.676)" fill="#fff"/>
  </g>
</svg>
