<svg id="desktop" xmlns="http://www.w3.org/2000/svg" xmlns:xlink="http://www.w3.org/1999/xlink" width="412" height="247" viewBox="0 0 412 247">
  <defs>
    <linearGradient id="linear-gradient" x1="0.072" y1="0.111" x2="0.395" y2="0.246" gradientUnits="objectBoundingBox">
      <stop offset="0" stop-color="#76f3ff"/>
      <stop offset="1" stop-color="#2eb9fa"/>
    </linearGradient>
    <clipPath id="clip-path">
      <path id="Clip_2" data-name="Clip 2" d="M0,0H412V19H0Z" fill="none"/>
    </clipPath>
    <linearGradient id="linear-gradient-2" x1="0.872" y1="-0.217" x2="0" y2="1" gradientUnits="objectBoundingBox">
      <stop offset="0" stop-color="#76f3ff"/>
      <stop offset="1" stop-color="#2ed9fa"/>
    </linearGradient>
  </defs>
  <path id="Rectangle" d="M20,0H354a20,20,0,0,1,20,20V221a20,20,0,0,1-20,20H18A18,18,0,0,1,0,223V20A20,20,0,0,1,20,0Z" transform="translate(18)" fill="url(#linear-gradient)"/>
  <g id="Group_3" data-name="Group 3" transform="translate(0 228)">
    <path id="Clip_2-2" data-name="Clip 2" d="M0,0H412V19H0Z" fill="none"/>
    <g id="Group_3-2" data-name="Group 3" clip-path="url(#clip-path)">
      <path id="Fill_1" data-name="Fill 1" d="M14.267,19C6.388,19,0,13.267,0,6.195V3.371A3.579,3.579,0,0,1,3.756,0H408.244A3.579,3.579,0,0,1,412,3.371V6.195C412,13.267,405.613,19,397.734,19Z" transform="translate(0 -0.322)" fill="url(#linear-gradient-2)"/>
    </g>
  </g>
  <path id="Fill_4" data-name="Fill 4" d="M.175,1.774l2.2,3.589A3.4,3.4,0,0,0,5.271,7H61.885a3.4,3.4,0,0,0,2.951-1.736l2.008-3.522A1.159,1.159,0,0,0,65.867,0H1.133A1.159,1.159,0,0,0,.175,1.774" transform="translate(174 228)" fill="#263238"/>
</svg>
