<svg width="58" height="45" viewBox="0 0 58 45" fill="none" xmlns="http://www.w3.org/2000/svg">
<path fill-rule="evenodd" clip-rule="evenodd" d="M20.1062 29.6973C20.3637 29.3424 20.4751 29.1367 20.6336 28.9783C29.7544 19.8588 38.8791 10.7431 48.0036 1.6275C50.177 -0.54386 52.7344 -0.542274 54.913 1.6309C55.4336 2.15029 55.9551 2.66854 56.4735 3.1902C58.506 5.23715 58.5117 7.85833 56.4735 9.8969C49.7532 16.617 43.0283 23.3323 36.3053 30.0497C31.7035 34.6473 27.1024 39.2452 22.5004 43.8422C20.9585 45.3822 19.2933 45.3859 17.7591 43.8535C12.3698 38.4693 6.98054 33.0851 1.59261 27.6997C-0.530869 25.5775 -0.530188 22.9983 1.59056 20.8763C2.16378 20.3028 2.73382 19.7261 3.31202 19.1575C5.21464 17.2866 7.88367 17.2714 9.7754 19.1502C13.0802 22.4322 16.3689 25.7305 19.6586 29.0274C19.8026 29.1716 19.891 29.3705 20.1062 29.6973" fill="url(#paint0_linear_0_2375)"/>
<defs>
<linearGradient id="paint0_linear_0_2375" x1="18.2434" y1="-16.048" x2="1.96851" y2="34.1223" gradientUnits="userSpaceOnUse">
<stop stop-color="#6BFFEA" stop-opacity="0.01"/>
<stop offset="1" stop-color="#76E9FF"/>
</linearGradient>
</defs>
</svg>
