<svg width="92" height="85" viewBox="0 0 92 85" fill="none" xmlns="http://www.w3.org/2000/svg">
<mask id="mask0_0_4969" style="mask-type:luminance" maskUnits="userSpaceOnUse" x="0" y="0" width="92" height="85">
<path fill-rule="evenodd" clip-rule="evenodd" d="M0 0H91.2168V85H0V0Z" fill="white"/>
</mask>
<g mask="url(#mask0_0_4969)">
<path fill-rule="evenodd" clip-rule="evenodd" d="M23.1016 80.0931C23.6127 80.0931 23.9745 80.0934 24.3364 80.0931C41.6577 80.0745 58.9789 80.0568 76.3002 80.0346C77.2046 80.0334 78.1096 80.0094 79.0128 79.967C82.783 79.7901 86.2 76.2728 86.2176 72.4799C86.2482 65.8008 86.2348 59.1215 86.2356 52.4424C86.2371 37.5234 86.2305 22.6045 86.2471 7.68557C86.2484 6.55639 85.982 5.61417 84.8792 5.17545C84.3797 4.97689 83.7824 4.96947 83.2294 4.96867C65.1591 4.94046 47.0886 4.92273 29.0183 4.90581C26.6579 4.90355 25.9025 5.66945 25.9025 8.04467C25.9022 29.1746 25.9009 50.3044 25.9044 71.4343C25.9049 73.8748 25.4109 76.1896 24.2137 78.3303C23.9015 78.8886 23.5319 79.415 23.1016 80.0931M45.6705 84.996C34.871 84.9947 24.0714 85.0094 13.2718 84.9895C5.6302 84.9755 0.179948 79.1507 0.0830829 72.7722C-0.0574606 63.5039 0.021031 54.2321 0.0290897 44.9617C0.0303791 43.4957 0.960513 42.531 2.26892 42.4811C3.70692 42.4259 4.6443 43.2352 4.84899 44.7359C4.89928 45.1045 4.88945 45.4828 4.88977 45.8567C4.89718 54.659 4.84287 63.4619 4.93216 72.2634C4.97938 76.9188 8.8735 80.3213 13.5206 80.0155C17.6958 79.7409 20.8761 76.3634 21.0294 72.0371C21.0426 71.6629 21.035 71.288 21.035 70.9134C21.0357 49.7191 21.0342 28.5245 21.0384 7.33019C21.0391 3.88574 23.222 1.08502 26.5725 0.269161C27.2907 0.0944483 28.0537 0.0390045 28.7962 0.0381986C47.025 0.0157955 65.2537 0.00612506 83.4825 4.55218e-07C87.2564 -0.00112776 90.0603 2.09494 90.9556 5.63319C91.1513 6.40601 91.1885 7.23542 91.189 8.03871C91.2009 29.1396 91.1651 50.2406 91.2167 71.3413C91.2343 78.5502 86.5644 83.256 81.4747 84.5247C80.4871 84.7708 79.4567 84.9742 78.4453 84.9773C67.5205 85.0092 56.5955 84.9973 45.6705 84.996" fill="#203AA2"/>
</g>
<path fill-rule="evenodd" clip-rule="evenodd" d="M43.7001 33.8976V33.8872C45.2592 33.8872 46.8182 33.8925 48.3773 33.8854C49.6125 33.8797 50.2543 33.2363 50.2575 31.9802C50.2654 28.8932 50.2662 25.8061 50.257 22.7191C50.2533 21.5032 49.578 20.7907 48.3602 20.7824C45.2421 20.7617 42.1237 20.7662 39.0056 20.7845C37.8168 20.7915 37.1565 21.4669 37.1526 22.6459C37.1423 25.7953 37.1421 28.9448 37.1529 32.0941C37.157 33.2621 37.7744 33.8835 38.9294 33.8941C40.5195 33.9084 42.1098 33.8976 43.7001 33.8976M43.6721 38.7604C41.9558 38.7606 40.2391 38.7788 38.5231 38.7565C35.1784 38.7134 32.2987 35.8011 32.2808 32.4348C32.2633 29.0958 32.2691 25.7564 32.2789 22.4174C32.2892 18.9101 35.1399 15.9764 38.6698 15.9211C42.0705 15.8679 45.4732 15.8674 48.8742 15.916C52.2438 15.964 55.1253 18.9573 55.1312 22.3289C55.1372 25.6368 55.0929 28.9454 55.1435 32.2527C55.198 35.8193 52.009 38.8562 48.8205 38.7686C47.1056 38.7214 45.3883 38.7603 43.6721 38.7604" fill="#2E60FF"/>
<path fill-rule="evenodd" clip-rule="evenodd" d="M55.8303 51.5404C48.9374 51.5404 42.0444 51.5454 35.1515 51.537C33.3801 51.5348 32.3045 50.6319 32.2778 49.1802C32.2567 48.0389 32.9973 47.0551 34.1137 46.7974C34.5041 46.7071 34.9149 46.6702 35.3166 46.6698C49.1973 46.6533 63.0783 46.6427 76.959 46.6357C78.9255 46.6348 79.974 47.6598 79.8561 49.4373C79.7909 50.4225 78.9898 51.3304 77.9994 51.4814C77.4785 51.5609 76.9455 51.5914 76.418 51.5918C69.5555 51.5988 62.6929 51.5965 55.8303 51.5965C55.8303 51.5778 55.8303 51.5591 55.8303 51.5404" fill="#2E60FF"/>
<path fill-rule="evenodd" clip-rule="evenodd" d="M45.9291 66.1028C42.2824 66.1028 38.6357 66.1053 34.9889 66.1017C33.3508 66.1001 32.2794 65.1387 32.2773 63.6835C32.2754 62.2356 33.3611 61.2364 34.9828 61.2347C42.3386 61.2272 49.6944 61.2254 57.0502 61.2302C58.6067 61.2312 59.6258 62.2144 59.6277 63.6719C59.6298 65.1566 58.6386 66.0972 57.0564 66.0985C53.3473 66.1016 49.6382 66.0995 45.9291 66.0995V66.1028Z" fill="#2E60FF"/>
<path fill-rule="evenodd" clip-rule="evenodd" d="M70.8287 32.9232C68.7399 32.9228 66.6506 32.9478 64.5623 32.9156C62.6024 32.8853 61.4598 31.5164 61.8763 29.7687C62.1289 28.7085 63.0326 27.9695 64.405 27.9561C68.7069 27.914 73.0099 27.9105 77.3116 27.9609C78.7217 27.9774 79.6714 28.8007 79.8465 29.881C80.0435 31.0956 79.5682 32.1714 78.5354 32.5981C78.0338 32.8053 77.4544 32.9 76.9079 32.9095C74.8821 32.9448 72.8552 32.9235 70.8287 32.9232" fill="#2E60FF"/>
<path fill-rule="evenodd" clip-rule="evenodd" d="M70.829 20.7743C68.6475 20.7743 66.4662 20.7791 64.2847 20.7725C62.8826 20.7683 61.8279 19.7789 61.7715 18.435C61.7162 17.1124 62.8286 15.9186 64.2213 15.9115C68.6153 15.8892 73.0094 15.8921 77.4033 15.9084C78.903 15.9141 79.8911 16.9741 79.865 18.4643C79.841 19.8391 78.8438 20.7694 77.3733 20.773C75.1918 20.7781 73.0105 20.7743 70.829 20.7743" fill="#2E60FF"/>
<path fill-rule="evenodd" clip-rule="evenodd" d="M74.7802 66.0993C73.9071 66.0993 73.0339 66.1111 72.161 66.0966C70.8459 66.0747 69.7915 65.0386 69.7454 63.7441C69.7016 62.513 70.7647 61.2834 72.037 61.2454C73.9063 61.1893 75.7798 61.1872 77.6488 61.2461C78.9973 61.2884 79.9023 62.4228 79.8599 63.8482C79.8217 65.1274 78.8279 66.0793 77.4929 66.0971C76.5889 66.109 75.6845 66.0993 74.7802 66.0993" fill="#2E60FF"/>
</svg>
