<?xml version="1.0" encoding="UTF-8"?>
<svg id="Calque_1" xmlns="http://www.w3.org/2000/svg" version="1.1" viewBox="0 0 72 72">
  <!-- Generator: Adobe Illustrator 29.0.1, SVG Export Plug-In . SVG Version: 2.1.0 Build 192)  -->
  <defs>
    <style>
      .st0 {
        fill: #fff;
      }

      .st1 {
        fill: #0288d1;
      }
    </style>
  </defs>
  <path class="st1" d="M72,62c0,5.5-4.5,10-10,10H10c-5.5,0-10-4.5-10-10V10C0,4.5,4.5,0,10,0h52c5.5,0,10,4.5,10,10v52Z"/>
  <path class="st0" d="M12,26h10v34h-10V26ZM17,22h0c-3,0-4.9-2.2-4.9-5s2-5,5-5,4.9,2.2,5,5c0,2.8-1.9,5-5,5ZM60,60h-10v-18.2c0-4.4-2.5-7.4-6.4-7.4s-4.6,2-5.4,4c-.3.7-.2,2.6-.2,3.6v18h-10V26h10v5.2c1.4-2.2,3.7-5.2,9.5-5.2s12.5,4.5,12.5,14.5v19.5h0Z"/>
</svg>