<?xml version="1.0" encoding="UTF-8"?>
<svg id="Calque_2" xmlns="http://www.w3.org/2000/svg" version="1.1" viewBox="0 0 1096.1 458.2">
  <!-- Generator: Adobe Illustrator 29.0.1, SVG Export Plug-In . SVG Version: 2.1.0 Build 192)  -->
  <defs>
    <style>
      .st0 {
        fill: #e91d24;
      }

      .st1 {
        fill: #d32e24;
      }

      .st2 {
        fill: #322f84;
      }
    </style>
  </defs>
  <g id="Calque_1-2">
    <g>
      <g id="TgGLU2.tif">
        <g>
          <path class="st1" d="M955.4,142.7c-46.5,47.4-91.8,93.6-137.9,140.6V2.9c45.9,46.6,91.3,92.6,137.6,139.6"/>
          <path class="st2" d="M955.2,142.5V2.4c46.4,47.1,92.1,93.5,138.3,140.4-46,46.9-91.6,93.5-138.1,140.9v-141"/>
          <path class="st2" d="M133.2,114c8.2,8.8,13.3,18.9,13.5,31.5h-30.1c-.4-.9-.8-2.1-1.3-3.3-2.8-6.9-4.4-7.6-11.1-4.6-43.4,19.1-92.3-6.3-100.6-53.2C-4.2,41.2,26.5,6.6,62.5.9c38.4-6.1,74,17.7,82.6,55.6,4.6,20.7.1,39.8-11.9,57.5h0ZM74.3,113c22.9,0,42-18.8,41.8-41.4-.1-22.3-19.1-41-41.6-41-22.7,0-41.2,18.5-41.3,41.1,0,22.7,18.4,41.2,41.1,41.3h0Z"/>
          <path class="st2" d="M651.2,177.8h-29.4V38.3c9.1,0,18,0,27,.1,1,0,2,2,3.4,3.5,13.8-6.6,28.7-7.8,43.9-2.1,11.3,4.2,20.1,11.6,26.7,21.7,13.1,20.2,11.5,46.2-3.9,65.1-14.2,17.3-40.4,26.1-67.7,13.8v37.5h0ZM650.9,90.8c-1.4,12.4,10.1,26.5,25.5,26.6,14.3.1,26.4-11.7,26.5-25.9.2-14.4-11.5-26.1-26-26.1-14.6,0-25.9,11-25.9,25.3h0Z"/>
          <path class="st2" d="M357.8,41.9c1.6-1.5,2.7-3.4,3.9-3.5,8.6-.3,17.2-.1,26.2-.1v106.1h-28.3c-.2-1.2-.4-2.6-.7-4-31.4,14-57,.9-69.6-15.8-14.8-19.5-15.1-46-.7-65.5,12.7-17.3,38.2-30.4,69.2-17.2h0ZM333,65.5c-14.4,0-25.7,11.2-25.8,25.6,0,14.6,11.5,26.3,25.8,26.3,14.4,0,26.2-11.7,26.2-26.1,0-14.5-11.5-25.8-26.2-25.8Z"/>
          <path class="st2" d="M492.5,90.1c0-31.8,24.5-56.1,56.3-56.5,28.1-.3,56.5,22.1,56.4,56.6,0,31.7-25.6,56.6-56.8,56.3-31.4-.3-55.9-24.9-55.9-56.4h0ZM548.8,117.5c15.4,0,27.5-12.2,27.5-27.5s-12.3-27.7-27.5-27.8c-15.2,0-28,12.7-27.9,28.1.1,15.2,12.5,27.3,27.9,27.3Z"/>
          <path class="st2" d="M238.3,36.4h29.1v109.2h-28.6c-.2-1.6-.5-3.3-.9-5.3-12.2,5.8-24.8,7.8-37.9,4.6-19.7-4.8-35.9-21.5-37.2-41.8-1.4-21.9-.3-44-.3-66.4h27.9c0,2,0,4.2,0,6.3.1,17.5,0,35,.5,52.5.5,13.6,10.2,22.5,22.8,22.1,12.8-.4,24.4-11.7,24.6-24.2.2-16.8,0-33.5,0-50.2v-6.7h0Z"/>
          <path class="st2" d="M402.4,143.8V4.2h29v139.6h-29Z"/>
          <path class="st2" d="M744,38.6h28.8v105.2h-28.8V38.6Z"/>
          <path class="st2" d="M477.7,143.9h-28.3V38.6h28.3v105.2Z"/>
          <path class="st2" d="M2.4,392.7h67.3c-9.8,7.5-13.6,16.1-6,27.9-6.8-.4-12.6-.7-18.3-1,0,.6-.1,1.2-.2,1.8,5.4,1.4,10.8,2.9,17.4,4.6-2.9,2.5-5.6,4.9-8.6,7.6,1.3.3,2.2.6,2.5.6-2.3,1-5.1,2.2-7.8,3.4.2.6.5,1.1.7,1.7,6.4-2,12.8-4,19.6-6.1-6.1,7.6-13.3,12.6-23.3,12.7-14.3,0-28.5,0-43.2,0,0,0,0-53.1,0-53.1ZM43.8,423.2c-1.1,3-1.9,5.5-2.9,8.2,4.7-.9,9.4-1.8,14-2.6,0-.5,0-1,0-1.5-3.6-1.4-7.2-2.7-11-4.1h0Z"/>
          <path class="st0" d="M101.8,421.3c-2.7-10.2-5-19.3-7.4-28.4h54.3v52.6c-2,0-4,.3-6,.3-14.7,0-29.3.1-44,0-3.3,0-6.6-1-9.8-1.8-2.5-.7-5.3-1.6-4.2-5.3,1.1-3.3,2.6-6.9,6.9-5.7,6.6,1.8,8.3-1,8.3-7,0-1.8,1.5-3.6,1.9-4.6h0Z"/>
          <path d="M527.5,442.9c6.3,3,11.8,5.7,18.2,8.7,1.3,7.5.6,8.5-9.4,6.6-5.3-1-10.1-5.3-14.8-8.6-2.5-1.8-4.3-3.1-7.9-2.5-15.1,2.5-29.8-9.6-31.1-25-1.4-16.4,10.4-29.8,26.2-30.3,12.3-.4,21.6,4.3,27,15.5,5.2,10.9,3,22.7-5.6,32.2-.5.5-.9,1.1-2.6,3.3h0ZM510.5,437.3c9.6,0,17.2-8,17.1-17.9,0-9.8-8-18.1-17.3-18-9.5.1-17,8.3-16.9,18.2.1,10.3,7.3,17.8,17.1,17.7Z"/>
          <path d="M819.7,393.8c9.7-2.6,15.8.3,20.1,9.3,4.3,8.9,10.3,17,16.6,26.9v-36.5h10.5c.2,1.2.5,2.5.6,3.7,0,14.7,0,29.3,0,44,0,3.7-1.2,4.6-4.8,4.9-6.3.5-10.3-1.4-13.5-7.2-5.4-9.9-11.9-19.3-19-28.6v35.1h-10.6v-51.6h0Z"/>
          <path d="M202.9,422.6c5.4,7.6,10.4,14.8,15.5,22.1-8.4,2.8-11.5,1.8-16-5-2.7-4.1-5.1-8.3-8.2-12.1-1.4-1.8-3.9-2.6-5.9-3.9-.5.5-1,.9-1.5,1.4v20.4h-10.4v-52.1c6.9,0,14.1-.6,21,.2,6.5.7,11.6,4.4,13.1,11.3,1.6,7.4-.8,13.3-7.8,17.7h0ZM187.3,417.3c4.9-2,8.8-3,11.7-5.3,1.1-.9.9-6.2-.3-6.9-3.1-2-7.1-2.6-11.4-3.9v16.1h0Z"/>
          <path d="M373.1,393.2c5.8,0,11.3-.3,16.7,0,5.8.4,11.3,2,13.8,8,2.5,6,1.7,11.7-2.5,15.4,2.5,4.2,5.8,7.7,6.6,11.7,1.7,8.5-3.9,15.2-12.8,16.7-2.4.4-4.9.6-7.3.7-4.7.1-9.4,0-14.5,0v-52.7h0ZM383.3,436.9c4.7,0,9.6.9,12.4-3.4,1.2-1.8,1-5.9-.2-7.7-3-4.2-7.7-3.4-12.1-2.4v13.5h0ZM383.3,414.6c3.8-1.4,7.1-2.1,9.7-3.9.9-.7.8-5.1-.2-5.8-2.6-1.7-5.9-2.3-9.4-3.5v13.2h0Z"/>
          <path d="M753.1,445.2c-8.4,2.1-14,.5-17.5-7-1.7-3.7-4.2-7.1-6.8-10.3-1.5-1.8-3.9-2.8-5.9-4.2-.5.4-1,.9-1.5,1.3v20.5h-10.2v-52.5c7.4.3,14.9.2,22.2,1.2,6,.8,10.2,4.6,11.5,10.9,1.3,6.4,0,11.9-5.4,16.1-.6.4-1.1.9-2.1,1.7,5.2,7.4,10.3,14.7,15.7,22.4h0ZM721.2,402.5c0,3.6-.1,6.9,0,10.2,0,.9,1,2.6,1.5,2.5,3.2-.3,6.8-.3,9.5-1.8,1.5-.9,2.6-5.4,1.7-6.7-1.5-2.2-4.7-3.3-7.4-4.4-1.4-.5-3.2,0-5.3.2h0Z"/>
          <path d="M756.6,446.2c6.7-17.8,12.8-34.2,19.2-50.6.4-1.1,2.4-2.2,3.7-2.4,10.9-1,11-1,14.8,9.1,5.4,14.1,10.7,28.3,16,42.5-9.7,2.5-10.9,2.1-13.6-6.6-1.6-5.2-4.2-7.5-9.6-6.5-.9.2-1.9,0-2.8,0-10.8,0-10.9,0-14.7,10.2-2.5,6.9-7.8,2.7-13,4.2h0ZM776.6,422.7h14.1c-2.3-6.4-4.4-12.2-7-19.5-2.6,7.1-4.7,13-7.1,19.5Z"/>
          <path d="M985.8,445.3c-10.7,1.4-11,1.5-13.9-7.6-1.5-4.7-3.9-6.9-8.8-5.9-.7.1-1.5,0-2.3,0-7.7,0-13,3.6-16,10.7-1.6,3.8-2,3.9-12,3,.3-1.4.5-2.9,1-4.2,5.6-14.7,11.3-29.4,16.7-44.1,1.2-3.1,2.7-4.2,6-4.1,9.7.1,9.8,0,13,8.7,5.4,14.3,10.8,28.7,16.3,43.5h0ZM959.6,404.7c-.4,0-.8.1-1.2.2-2,5.8-4.1,11.6-6.3,17.8h14c-2.3-6.4-4.4-12.2-6.5-18Z"/>
          <path d="M928.8,402.3c-2.9,2.3-5.5,4.3-8.2,6.4-9.4-8.8-18.5-9.6-25.8-2.3-7,6.9-7,18.9-.2,26,6.9,7.1,16.6,6.5,26.2-2,2.6,2,5.2,4,9.1,6.9-5.1,3.2-9.4,6.8-14.2,8.4-3.8,1.3-6.4,2.9-7.8,6.3-2.3,5.9-6.6,6.8-12.4,5.1,1.9-3.4,3.6-6.6,5.4-9.8-15.7-6.4-22.8-15.7-22.3-28.5.5-11.9,7.5-21.9,18-25.6,11.6-4.1,23.6-1,32.3,9h0Z"/>
          <path d="M316.1,393.4h10.4v31.7c0,8,3.3,11.9,10,12.1,7,.2,11.1-4,11.2-11.8.2-10.5,0-21,0-31.9h9.5c0,12.9,1,25.9-.3,38.6-1.1,10.4-10.1,15.8-21,15.3-11.1-.4-18.9-6.4-19.6-17.1-.9-12.1-.2-24.3-.2-36.9h0Z"/>
          <path d="M549,393.4h10.3v31.1c0,8.8,3.3,12.8,10.6,12.8,7,0,10.8-4.3,10.8-12.8.1-10.1,0-20.3,0-30.9h10c0,12.4.8,25-.3,37.4-1,10.7-10.2,16.8-21.5,16.4-11.1-.4-19.2-6.8-19.8-17.5-.7-11.9-.2-24-.2-36.5h0Z"/>
          <path class="st2" d="M20.1,272.9v25.1h-7.7v-67.1c3.3,1,6.1,1.9,10,3.1,9.8-6.2,22-5.6,29.8,2.5,7.9,8.3,8.7,23.6,1.7,32.8-7.4,9.8-18.8,11.1-33.7,3.6h0ZM50.6,254c0-.8,0-1.5,0-2.2-.4-8.5-7.3-15-15.9-14.9-9.3,0-14.6,5.5-14.6,15s.2,4.5,0,6.8c-.5,4.1,1.4,6.8,4.5,9,5.5,3.8,11.3,4.9,17.4,1.6,6-3.2,8.8-8.4,8.6-15.2h0Z"/>
          <path d="M1054.6,399.8c-3.4,3.1-5.8,5.2-7.4,6.8-4.1-2-7.4-4.3-11-5.1-1.8-.4-5.5,1.6-6,3.3-.6,1.7.9,5.3,2.6,6.5,4.1,2.9,9.1,4.5,13.3,7.2,9.6,6.1,10.2,19.2,1.2,25.6-6.5,4.6-13.8,4.5-20.9,1.6-3.5-1.4-6.5-4-10.3-6.4,3.2-3,5.4-5.2,7.2-6.9,4.2,2,7.9,4.2,11.9,5.3,3.3.9,7-.5,7.2-4.3.2-2.2-1.7-5.1-3.5-6.7-2.3-2-5.6-3-8.5-4.4-10.7-5.3-14.3-12.8-10.4-21.5,3.5-7.8,13.8-11.3,23.4-7.6,3.7,1.4,6.9,4.1,11.3,6.7h0Z"/>
          <path d="M1096.1,393.6v8.6h-19.6v12.3h16.3v9.1h-16.3v13.4h19.5v8.6h-30v-52h30.1,0Z"/>
          <path d="M616.3,437h19.6v8.5h-30.1v-51.9h30v8.5h-19.6v12.3h16.3v9h-16.2v13.6h0Z"/>
          <path d="M227.3,393.4h29.8v8.6h-19.6v12.5h16.3v9.1h-16.3v13.4h19.7v8.6h-29.9v-52.2h0Z"/>
          <path d="M271.3,392.7c8.4.5,16.6.3,24.4,1.7,7.8,1.4,11.6,7.7,11,15.4-.5,7.4-5,12.6-12.5,13.9-4,.7-8.2.8-12.8,1.1v20.6h-10.2v-52.7h0ZM281.5,415.6c5.1-.3,10.4,1.6,13.2-3.6,1-1.8.8-5.5-.4-7.1-3.4-4.5-8.3-2.4-12.8-2.3v13h0Z"/>
          <path class="st2" d="M102.6,253.7c0-13.9,10.3-24.1,24.3-23.9,13.8.1,24.3,10.7,24.2,24.3-.2,13.8-10.6,23.9-24.6,23.9-13.9,0-23.9-10.1-23.9-24.3h0ZM126.8,236.9c-9.2,0-16.2,7-16.3,16.4-.1,10.1,6.9,17.9,16.2,17.8,8.6,0,16.1-7.8,16.4-16.9.3-9.4-7.2-17.3-16.3-17.4Z"/>
          <path class="st2" d="M248,264.9c1.2.8,2,1.3,2.8,1.8.8.5,1.4,1.2,2.1,1.7-2.9,8.7-18.9,12-28.7,7.8-11.6-5-17.1-17.9-12.9-31.1,3.5-11.1,14.1-16.8,26.4-14.6,10.1,1.8,17.5,12.6,13.8,23.8h-32.9c-.7,6.7,2,12.2,7.8,15.1,8.1,4,15.3,2.2,21.7-4.4h0ZM244.9,248.1c-1.6-8.4-6-12.2-13.1-11.9-7.1.3-12,4.9-12.5,11.9h25.5Z"/>
          <path class="st2" d="M554.4,254.2h-34.3c.3,7.2,3,12.6,9.2,15.4,7.9,3.6,15,1.6,21.2-4.7,1.8,1.4,3.4,2.6,4.9,3.8-5.5,10.6-25.8,13.2-36.2,2.6-7.4-7.5-9.1-20.5-3.8-30.4,4.6-8.6,13.7-12.5,24.5-10.5,10.5,1.9,15.8,10.3,14.5,23.8h0ZM521.1,248.1h25.4c.2-6.7-3.7-11.1-10.1-11.9-7.5-.9-13.3,3.4-15.4,11.9Z"/>
          <path class="st2" d="M765.5,264.7c1.8,1.4,3.4,2.7,4.9,4-5.1,7.6-14.7,11.1-24.2,8.9-9.8-2.3-17-9.4-18.4-18.4-2.9-18.4,8.9-31.6,25.9-28.9,11.8,1.8,17.6,10.8,15.2,24h-33.7c0,7.6,3.2,13,9.7,15.6,7.8,3.2,14.7,1.2,20.5-5.2h0ZM736,248h25.9c-.7-7.2-4.4-11.2-10.7-11.8-7.3-.7-12.6,3.2-15.2,11.8h0Z"/>
          <path d="M670.2,445.5v-52h30.2v8.6h-19.7v12.3h16.3v9.2h-16.4v21.9h-10.3,0Z"/>
          <path class="st2" d="M464,2.2c9.3,0,16.3,7.1,16.2,16.4-.1,9.1-7,15.9-16.2,15.9-9.3,0-16.6-7.1-16.6-16.2,0-9.1,7.3-16.1,16.6-16.1h0Z"/>
          <path class="st2" d="M758.8,2.2c9.3,0,16.5,7.1,16.5,16.3s-7.1,15.9-16.2,16.1c-9.5.1-16.6-6.8-16.6-16.1,0-9.3,7-16.3,16.4-16.3h0Z"/>
          <path class="st2" d="M680.5,238.2v37.8h-7.5v-37.2c-2.9-.2-5.3-.4-8.3-.6,0-1.9-.2-3.9-.3-6.2,2.8-.3,5.3-.5,8.1-.8.7-8.2.4-17,10-20.3,6-2.1,12.2-1.9,17.7,3.1-1.4,1.7-2.7,3.2-4,4.8,0-.5-.2-1-.3-1.5-4,.3-8.6-.6-11.8,1.1-4.7,2.4-4.1,7.8-3.5,13h15.1v6.8h-15.3Z"/>
          <path class="st2" d="M345.7,231.8h7.9c0,8.6,0,17,0,25.4,0,8.2,4,13.1,11,13.9,6.9.7,12.4-3.6,13-11.7.7-8.9.2-18,.2-27.5,2.8-.1,4.8-.2,6.9-.3,0,11,1.1,22-.3,32.6-1.4,10.1-10.1,14.7-21.3,13.8-9.8-.8-16.5-7.9-17.1-19.1-.5-8.8-.1-17.6-.1-27.1h0Z"/>
          <path class="st2" d="M198.4,243.2c-9.5-7.9-19-8.2-25.4-1-5.8,6.6-5.5,17.9.7,24.1,6.9,6.9,15.8,6.4,24.5-1.8,1.7,1.3,3.5,2.6,5.2,3.9-3.9,7.3-13.7,11.1-23,9.3-10.7-2.1-18.4-10.2-19.1-20.1-.9-12.9,4.1-22.1,14.2-26,10.4-4,21.4-1.3,28.1,7.4-1.7,1.4-3.3,2.7-5.2,4.2h0Z"/>
          <path class="st2" d="M506.1,239.1c-1.9,1.4-3.7,2.7-5.4,4-9.5-7.9-18.3-8.2-25.1-1-6.3,6.8-6.1,18,.6,24.4,7,6.7,15.8,6.1,24.3-1.9,1.8,1.4,3.7,2.8,5.5,4.2-6.2,10.8-24.8,12.4-34.5,3.7-10.4-9.2-11.2-26-1.6-35.7,9.7-9.9,28.7-9.1,36.2,2.3h0Z"/>
          <path d="M430.3,436.2h19.7v9.1h-29.5v-51.8h9.7v42.7h0Z"/>
          <path class="st2" d="M293.5,237c-1.7,1.6-3.2,3-3.9,3.6-4.4-1.6-8.1-3.8-11.8-4.1-2-.2-5.3,2.3-6.1,4.4-.6,1.6,1.1,5,2.7,6.5,2.1,1.9,5.2,2.8,8,4,9.3,4.1,12.2,8.9,10.2,16.8-1.7,6.9-8.6,11.2-17.4,9.6-4.8-.9-9.3-3.8-15-6.3,2.9-2.7,4.3-4,5.7-5.3,3.1,1.8,5.8,3.8,8.8,5,4.3,1.7,8.5.8,10.5-3.7,2-4.6-1-7.4-4.9-9.3-3-1.5-6.2-2.6-9.2-4.2-5.8-3.1-8-7.8-6.9-14.1.8-5,5-8.8,11-9.7,7.2-1.2,13.2.8,18.3,6.8h0Z"/>
          <path class="st2" d="M333.6,237.2c-1.9,1.6-3.3,2.7-3.8,3.1-4.5-1.6-8.2-3.5-12-3.9-1.9-.2-5.1,2.2-5.7,4-.6,1.9.7,5.2,2.3,6.7,2.1,2,5.2,2.9,7.9,4.1,9.3,4.1,12.8,9.9,10.4,17.3-2.4,7.4-10.7,11.5-19.5,8.9-4.2-1.2-7.9-3.8-12.8-6.2,2.6-2.4,4.2-3.9,5.3-4.9,3.8,1.9,7.1,4.1,10.7,5.1,4,1.2,7.4-.3,9.1-4.5,1.6-4.1-.8-6.4-4-8.1-3.1-1.7-6.5-2.9-9.7-4.5-6-3.1-8.8-8.2-7.8-13.6,1.2-6.3,5.6-10.2,12.7-10.8,6.5-.5,12.2,1.4,16.8,7.3h0Z"/>
          <path class="st2" d="M428.7,237.2c-1.9,1.5-3.3,2.7-3.6,3-4.7-1.6-8.4-3.4-12.2-3.8-1.9-.2-5.1,2.2-5.7,4-.6,1.9.8,5.2,2.4,6.7,2.3,2.1,5.5,3,8.4,4.4,9.2,4.2,12.4,10,9.7,17.5-2.5,6.9-10.9,10.9-19.3,8.4-4.1-1.2-7.9-3.9-12.6-6.3,2.6-2.4,4.2-3.9,5.2-4.8,3.8,1.9,7,4,10.5,5.1,4,1.3,7.5-.2,9.2-4.3,1.8-4.3-.8-6.7-4.3-8.5-3.2-1.6-6.5-2.9-9.7-4.5-5.9-3.2-8.2-7.9-7.2-13.9,1-5.8,5.1-9.5,11.8-10.2s12.6,1.1,17.4,7.2Z"/>
          <path class="st2" d="M632.6,231.7v6.8h-15.1c0,8.5-.3,16.6.1,24.6.3,4.7,3.3,7.4,8.4,7.1,2-.1,4.1,0,6.4,0,1.7,4.7.4,6.9-4.9,7-12.5.3-17.3-4-17.5-16.4,0-7.1,0-14.2,0-21.8-2.9-.2-5.5-.4-8.6-.6,0-1.9-.2-3.9-.3-6.3,2.8-.2,5.4-.4,8.6-.6v-10.7h7.1c.2,3.4.4,6.9.7,11.1h15.1,0Z"/>
          <path d="M995.4,393.4h10.1v52h-10.1v-52Z"/>
          <path d="M470.8,445.6h-9.6v-52.1h9.6v52.1Z"/>
          <path class="st2" d="M592.8,238.4c-2,0-3.7-.1-5.4,0-6.4.5-11,5.4-11,11.8,0,8.4,0,16.9,0,25.7h-7.1v-44.1h6.6c.2,1.1.5,2.4.9,3.9.7-.4,1.2-.6,1.6-.8,2.3-1.2,4.5-2.8,6.9-3.6,7.2-2.3,8.5-1.1,7.5,7.1h0Z"/>
          <path class="st2" d="M72,231.7c3.8.2,7.9-1.9,7.9,3.8,3-1.4,5.7-3.1,8.7-4.1,7-2.3,8.3-1.1,7.5,6.7-1.5.1-3.1.2-4.8.3-7.2.4-11.7,5-11.8,12.2,0,8.2,0,16.5,0,25.4-2.5.1-4.6.2-7.5.4v-44.7h0Z"/>
          <path class="st2" d="M706.7,231.8h7.2v44.2h-7.2v-44.2Z"/>
          <path class="st2" d="M646,275.9v-43.9h7v43.9h-7Z"/>
          <path class="st2" d="M746.3,223.9c5.9-5.3,5.2-16.1,16.4-13.7-2.8,9.1-8.5,14.4-16.4,13.7Z"/>
          <path d="M237.7,388.4c4.3-6.8,8.5-12.6,17.4-9.3-6.6,9.5-7.4,10-17.4,9.3Z"/>
          <path class="st2" d="M716.2,215.5c-2,1.4-3.9,3.9-5.8,3.9-1.8,0-5-3-4.9-4.3.2-2.1,2.6-5.1,4.5-5.5,1.7-.4,4.1,2.3,6.2,3.6,0,.8,0,1.6.1,2.3h0Z"/>
          <path class="st2" d="M655.4,215.6c-1.9,1.4-4.1,4.1-5.7,3.8-2-.3-4.8-2.9-5.1-4.9-.3-1.4,2.8-4.6,4.6-4.9,1.8-.2,4.1,2.2,6.1,3.4,0,.9,0,1.7.2,2.5h0Z"/>
        </g>
      </g>
      <path class="st1" d="M955.2,142.5V2.4c46.4,47.1,92.1,93.5,138.3,140.4l-138.3-.3h0Z"/>
      <path class="st2" d="M817.7,142.5V2.4c46.4,47.1,92.1,93.5,138.3,140.4l-138.3-.3h0Z"/>
    </g>
  </g>
</svg>