<svg width="385" height="180" viewBox="0 0 385 180" fill="none" xmlns="http://www.w3.org/2000/svg">
<path d="M89.5259 178.679C89.1443 179.725 85.4914 179.334 81.2232 178.335C76.955 177.32 73.5125 176.04 73.6371 174.931C73.7539 173.846 77.6093 173.377 82.1345 174.447C86.6675 175.509 89.9076 177.648 89.5259 178.671V178.679Z" fill="#11D0FC"/>
<path d="M340.987 19.5184C341.649 20.4162 340.021 22.7273 338.012 25.3193C335.979 27.888 334.125 30.0195 333.089 29.59C332.085 29.1919 332.482 25.9049 334.881 22.8522C337.272 19.7917 340.364 18.6283 340.987 19.5106V19.5184Z" fill="white"/>
<path d="M239.641 0.288562C240.303 1.18642 238.675 3.49744 236.666 6.08952C234.633 8.65818 232.779 10.7896 231.743 10.3602C230.739 9.96203 231.136 6.67508 233.535 3.62236C235.926 0.561823 239.018 -0.601491 239.641 0.280754V0.288562Z" fill="#11D0FC"/>
<path d="M10.0941 69.7597C9.88377 70.8372 7.45371 71.2666 4.66537 70.72C1.88482 70.1657 -0.202537 68.8462 0.00775705 67.761C0.218051 66.6836 2.64811 66.2542 5.43645 66.8007C8.217 67.355 10.3044 68.6745 10.0941 69.7519V69.7597Z" fill="white"/>
<path d="M195.69 61.3118C194.591 61.3274 193.649 58.1107 193.587 54.1211C193.524 50.1315 194.366 46.8836 195.464 46.868C196.562 46.8524 197.504 50.069 197.567 54.0587C197.629 58.0483 196.788 61.2962 195.69 61.3118Z" fill="#2E60FF"/>
<path d="M92.2955 67.0972C91.9138 68.1434 88.2609 67.753 83.9928 66.7536C79.7246 65.7387 76.282 64.4582 76.4066 63.3496C76.5234 62.2643 80.3788 61.7959 84.904 62.8655C89.437 63.9273 92.6771 66.0666 92.2955 67.0894V67.0972Z" fill="#83EBFF"/>
<path d="M384.51 83.407C385.172 84.3049 383.544 86.6159 381.535 89.208C379.502 91.7766 377.648 93.9081 376.612 93.4787C375.608 93.0805 376.005 89.7935 378.404 86.7408C380.795 83.6803 383.887 82.5169 384.51 83.3992V83.407Z" fill="#0066FF"/>
<path d="M312.115 101.872C311.429 102.731 309.264 102.137 307.286 100.552C305.3 98.9595 304.256 96.9764 304.941 96.1176C305.627 95.2588 307.792 95.8521 309.77 97.437C311.749 99.0298 312.8 101.013 312.115 101.872Z" fill="#455A64"/>
<path d="M57.2438 113.094C57.3061 113.312 55.5147 113.523 53.0769 115.303C51.9008 116.209 50.5767 117.536 49.6421 119.402C48.7152 121.253 48.2479 123.673 48.7853 126.218C49.2682 128.716 50.7792 131.457 53.2404 132.956C54.4711 133.674 56.021 134.088 57.4152 133.862C58.7938 133.659 59.8842 132.667 60.0711 131.238C60.2814 129.802 59.6972 128.256 58.4822 127.163C57.2905 126.046 55.5615 125.328 53.809 125.016C50.2574 124.391 46.2462 125.601 43.3489 128.193C40.3814 130.731 38.9405 134.635 39.6259 138.195C39.9374 139.959 40.7319 141.583 41.9235 142.707C43.1152 143.886 44.6418 144.316 46.2307 144.199C47.7884 144.082 49.2994 143.379 50.1873 142.294C51.0908 141.232 51.3244 139.78 50.8961 138.491C50.4833 137.195 49.5408 136.071 48.4271 135.368C47.3133 134.642 46.0515 134.369 44.7975 134.424C42.2818 134.549 40.1166 135.853 38.6289 137.273C37.1257 138.733 36.1599 140.35 35.4667 141.7C34.1115 144.441 33.613 146.119 33.4261 146.057C33.3015 146.026 33.4806 144.285 34.6178 141.318C35.2097 139.85 36.0976 138.062 37.6709 136.337C39.252 134.666 41.5964 133.034 44.6885 132.737C47.7417 132.378 51.4802 134.221 52.7731 137.875C53.0847 138.78 53.2093 139.795 53.0613 140.81C52.9055 141.825 52.4694 142.817 51.8151 143.629C50.5066 145.276 48.5049 146.205 46.4254 146.4C45.3817 146.502 44.2913 146.416 43.232 146.08C42.1572 145.752 41.1758 145.128 40.3814 144.394C38.738 142.887 37.7332 140.795 37.3282 138.632C36.9232 136.461 37.0868 134.143 37.889 131.996C38.6523 129.841 40.062 127.936 41.7755 126.413C45.2026 123.361 49.8835 121.94 54.2296 122.72C56.3871 123.126 58.4355 123.97 60.0555 125.508C61.6989 126.999 62.6491 129.372 62.2597 131.597C62.0806 132.706 61.5354 133.815 60.6942 134.58C59.8608 135.368 58.7782 135.806 57.7579 135.946C55.6861 136.219 53.8012 135.603 52.2513 134.666C49.1436 132.628 47.6404 129.435 47.1575 126.523C46.659 123.571 47.3366 120.784 48.5049 118.77C49.6732 116.732 51.231 115.389 52.5862 114.53C55.3979 112.859 57.2983 112.992 57.275 113.094H57.2438Z" fill="#1A37A8"/>
<path d="M314.521 154.041C314.732 153.948 315.207 155.696 317.333 157.836C318.408 158.866 319.911 159.975 321.897 160.615C323.86 161.255 326.313 161.349 328.751 160.428C331.135 159.569 333.619 157.656 334.717 154.994C335.239 153.667 335.411 152.066 334.974 150.723C334.562 149.388 333.417 148.459 331.984 148.49C330.535 148.498 329.094 149.31 328.214 150.684C327.295 152.035 326.843 153.854 326.812 155.642C326.734 159.249 328.541 163.051 331.54 165.526C334.499 168.079 338.565 168.915 341.969 167.697C343.659 167.119 345.146 166.088 346.066 164.738C347.047 163.379 347.242 161.802 346.883 160.248C346.533 158.718 345.614 157.328 344.407 156.618C343.223 155.884 341.758 155.868 340.551 156.493C339.336 157.094 338.37 158.203 337.841 159.413C337.295 160.631 337.218 161.919 337.459 163.153C337.965 165.62 339.578 167.572 341.205 168.836C342.872 170.101 344.617 170.812 346.05 171.296C348.955 172.217 350.684 172.459 350.653 172.654C350.637 172.787 348.893 172.865 345.793 172.194C344.259 171.827 342.358 171.226 340.419 169.922C338.526 168.61 336.563 166.533 335.808 163.52C334.99 160.553 336.244 156.563 339.648 154.728C340.489 154.283 341.478 154.002 342.498 153.994C343.519 153.994 344.562 154.276 345.466 154.799C347.288 155.845 348.503 157.687 349.017 159.717C349.274 160.74 349.352 161.833 349.189 162.934C349.025 164.05 348.566 165.112 347.958 166.018C346.72 167.868 344.812 169.188 342.74 169.914C340.66 170.64 338.347 170.835 336.112 170.367C333.868 169.937 331.781 168.836 330.021 167.369C326.493 164.433 324.374 160.014 324.483 155.595C324.553 153.401 325.083 151.238 326.345 149.396C327.567 147.545 329.764 146.234 332.015 146.288C333.136 146.288 334.312 146.671 335.193 147.389C336.096 148.1 336.688 149.099 336.984 150.091C337.568 152.105 337.249 154.065 336.556 155.743C335.013 159.132 332.1 161.107 329.304 162.028C326.477 162.973 323.626 162.723 321.453 161.872C319.265 161.021 317.707 159.686 316.656 158.468C314.584 155.939 314.428 154.033 314.529 154.041H314.521Z" fill="#1A37A8"/>
<path d="M139.642 34.9772C139.681 35.1021 138.825 35.6018 137.088 35.7736C135.382 35.9375 132.695 35.7345 129.938 34.0403C127.181 32.4163 124.657 28.9186 124.346 24.5776C124.19 22.4306 124.532 20.0805 125.724 17.9491C126.316 16.8951 127.134 15.8879 128.217 15.1228C129.268 14.3576 130.717 13.858 132.119 13.9517C133.513 14.0219 134.899 14.545 135.943 15.5834C137.002 16.614 137.469 18.2223 137.251 19.5808C137.057 20.955 136.379 22.1261 135.468 23.0083C134.541 23.914 133.349 24.4215 132.228 24.6245C129.93 25.0305 127.827 24.4293 126.137 23.5314C124.447 22.6023 123.138 21.3453 122.204 20.0493C120.342 17.4104 119.898 14.7558 119.968 13.0226C120.046 11.2659 120.482 10.3836 120.615 10.4149C120.802 10.4539 120.693 11.383 120.895 12.9757C121.098 14.5528 121.768 16.856 123.543 19.0187C124.439 20.0805 125.607 21.0721 127.033 21.7669C128.45 22.4384 130.195 22.8131 131.799 22.4618C132.602 22.2822 133.334 21.9309 133.879 21.3688C134.44 20.8066 134.845 20.0337 134.938 19.2685C135.032 18.5034 134.806 17.7929 134.268 17.2542C133.739 16.7155 132.882 16.372 132.01 16.3329C130.288 16.208 128.676 17.4884 127.757 19.1046C126.807 20.7285 126.464 22.6492 126.542 24.4293C126.698 28.0598 128.622 31.0578 130.88 32.6193C133.139 34.2589 135.507 34.7117 137.08 34.8367C138.684 34.9616 139.604 34.782 139.65 34.9772H139.642Z" fill="white"/>
</svg>
