<?xml version="1.0" encoding="UTF-8"?>
<svg id="quotes_icone" data-name="quotes icone" xmlns="http://www.w3.org/2000/svg" version="1.1" viewBox="0 0 92 103">
  <defs>
    <style>
      .cls-1 {
        fill: #6bccfa;
        stroke-width: 0px;
      }
    </style>
  </defs>
  <g id="Group_3-2" data-name="Group 3-2">
    <path id="Fill_1" data-name="Fill 1" class="cls-1" d="M92,52c0,1.4-.2,2.8-.2,4.2-.3,5.6-1.1,11.2-2.4,16.6-1.9,6.9-5.6,13.2-10.7,18.2-5,5-10.9,8.9-17.5,11.6-2.2,1-4.8.1-5.9-2.1-1.4-2.7-2.7-5.5-3.9-8.3-1-2.3,0-4.9,2.3-5.9,0,0,.1,0,.2,0,3.2-1.3,6.2-3.1,8.9-5.4,4.2-3.6,6.5-8.2,7.8-13.5.6-2.7,1-5.5,1.1-8.4,0-.2,0-.4,0-.6h-.8c-4.4,0-8.8,0-13.2,0-2.7.1-5-1.9-5.1-4.6,0-.2,0-.4,0-.5,0-9.7,0-19.4,0-29.2s1.3-4.4,4.1-5.1c0,0,0,0,0,0h31.1c.8.3,1.6.6,2.4,1,1,.7,1.6,1.7,1.8,2.9v29Z"/>
  </g>
  <g id="Group_3-4" data-name="Group 3-4">
    <path id="Fill_1-2" data-name="Fill 1-2" class="cls-1" d="M41,33c0,1.4-.2,2.8-.2,4.2-.3,5.6-1.1,11.2-2.4,16.6-1.9,6.9-5.6,13.2-10.7,18.2-5,5-10.9,8.9-17.5,11.6-2.2,1-4.8.1-5.9-2.1-1.4-2.7-2.7-5.5-3.9-8.3-1-2.3,0-4.9,2.3-5.9,0,0,.1,0,.2,0,3.2-1.3,6.2-3.1,8.9-5.4,4.2-3.6,6.5-8.2,7.8-13.5.6-2.7,1-5.5,1.1-8.4,0-.2,0-.4,0-.6h-.8c-4.4,0-8.8,0-13.2,0-2.7.1-5-1.9-5.1-4.6,0-.2,0-.4,0-.5,0-9.7,0-19.4,0-29.2S2.9.7,5.7,0c0,0,0,0,0,0h31.1c.8.3,1.6.6,2.4,1,1,.7,1.6,1.7,1.8,2.9v29Z"/>
  </g>
</svg>